<mxfile host="65bd71144e">
    <diagram id="WBCqTLiAXxca6-SShoP5" name="Architect leyers">
        <mxGraphModel dx="913" dy="633" grid="1" gridSize="10" guides="1" tooltips="1" connect="1" arrows="1" fold="1" page="1" pageScale="1" pageWidth="827" pageHeight="1169" math="0" shadow="0">
            <root>
                <mxCell id="0"/>
                <mxCell id="1" parent="0"/>
                <mxCell id="2" value="Business Logic (Core)" style="rounded=0;whiteSpace=wrap;html=1;labelPosition=center;verticalLabelPosition=top;align=center;verticalAlign=bottom;" vertex="1" parent="1">
                    <mxGeometry x="190" y="70" width="380" height="240" as="geometry"/>
                </mxCell>
                <mxCell id="6" style="edgeStyle=orthogonalEdgeStyle;html=1;entryX=0;entryY=0.5;entryDx=0;entryDy=0;" edge="1" parent="1" source="3" target="5">
                    <mxGeometry relative="1" as="geometry"/>
                </mxCell>
                <mxCell id="7" style="edgeStyle=orthogonalEdgeStyle;html=1;entryX=0;entryY=0.5;entryDx=0;entryDy=0;" edge="1" parent="1" source="3" target="4">
                    <mxGeometry relative="1" as="geometry"/>
                </mxCell>
                <mxCell id="3" value="Core" style="rounded=0;whiteSpace=wrap;html=1;" vertex="1" parent="1">
                    <mxGeometry x="220" y="160" width="90" height="30" as="geometry"/>
                </mxCell>
                <mxCell id="4" value="Entity" style="rounded=0;whiteSpace=wrap;html=1;" vertex="1" parent="1">
                    <mxGeometry x="390" y="200" width="90" height="30" as="geometry"/>
                </mxCell>
                <mxCell id="5" value="Service" style="rounded=0;whiteSpace=wrap;html=1;" vertex="1" parent="1">
                    <mxGeometry x="394" y="130" width="90" height="30" as="geometry"/>
                </mxCell>
                <mxCell id="8" value="Infra Suport (Adapters)" style="rounded=0;whiteSpace=wrap;html=1;labelPosition=center;verticalLabelPosition=top;align=center;verticalAlign=bottom;" vertex="1" parent="1">
                    <mxGeometry x="190" y="360" width="440" height="390" as="geometry"/>
                </mxCell>
                <mxCell id="9" style="edgeStyle=orthogonalEdgeStyle;html=1;entryX=0;entryY=0.5;entryDx=0;entryDy=0;" edge="1" parent="1" source="11" target="13">
                    <mxGeometry relative="1" as="geometry"/>
                </mxCell>
                <mxCell id="10" style="edgeStyle=orthogonalEdgeStyle;html=1;entryX=0;entryY=0.5;entryDx=0;entryDy=0;" edge="1" parent="1" source="11" target="12">
                    <mxGeometry relative="1" as="geometry"/>
                </mxCell>
                <mxCell id="15" style="edgeStyle=orthogonalEdgeStyle;html=1;entryX=0;entryY=0.5;entryDx=0;entryDy=0;" edge="1" parent="1" source="11" target="14">
                    <mxGeometry relative="1" as="geometry"/>
                </mxCell>
                <mxCell id="11" value="HTTP" style="rounded=0;whiteSpace=wrap;html=1;" vertex="1" parent="1">
                    <mxGeometry x="220" y="450" width="90" height="30" as="geometry"/>
                </mxCell>
                <mxCell id="24" style="edgeStyle=orthogonalEdgeStyle;html=1;entryX=0;entryY=0.5;entryDx=0;entryDy=0;" edge="1" parent="1" source="12" target="23">
                    <mxGeometry relative="1" as="geometry"/>
                </mxCell>
                <mxCell id="25" style="edgeStyle=orthogonalEdgeStyle;html=1;entryX=0;entryY=0.5;entryDx=0;entryDy=0;" edge="1" parent="1" source="12" target="22">
                    <mxGeometry relative="1" as="geometry"/>
                </mxCell>
                <mxCell id="12" value="GRAPHQL" style="rounded=0;whiteSpace=wrap;html=1;" vertex="1" parent="1">
                    <mxGeometry x="390" y="500" width="90" height="30" as="geometry"/>
                </mxCell>
                <mxCell id="19" style="edgeStyle=orthogonalEdgeStyle;html=1;entryX=0;entryY=0.5;entryDx=0;entryDy=0;" edge="1" parent="1" source="13" target="17">
                    <mxGeometry relative="1" as="geometry"/>
                </mxCell>
                <mxCell id="20" style="edgeStyle=orthogonalEdgeStyle;html=1;entryX=0;entryY=0.5;entryDx=0;entryDy=0;" edge="1" parent="1" source="13" target="16">
                    <mxGeometry relative="1" as="geometry"/>
                </mxCell>
                <mxCell id="21" style="edgeStyle=orthogonalEdgeStyle;html=1;entryX=0;entryY=0.5;entryDx=0;entryDy=0;" edge="1" parent="1" source="13" target="18">
                    <mxGeometry relative="1" as="geometry"/>
                </mxCell>
                <mxCell id="13" value="REST" style="rounded=0;whiteSpace=wrap;html=1;" vertex="1" parent="1">
                    <mxGeometry x="390" y="410" width="90" height="30" as="geometry"/>
                </mxCell>
                <mxCell id="27" style="edgeStyle=orthogonalEdgeStyle;html=1;" edge="1" parent="1" source="14" target="26">
                    <mxGeometry relative="1" as="geometry"/>
                </mxCell>
                <mxCell id="14" value="CLIENT" style="rounded=0;whiteSpace=wrap;html=1;" vertex="1" parent="1">
                    <mxGeometry x="390" y="590" width="90" height="30" as="geometry"/>
                </mxCell>
                <mxCell id="16" value="DTO" style="rounded=0;whiteSpace=wrap;html=1;" vertex="1" parent="1">
                    <mxGeometry x="510" y="410" width="90" height="30" as="geometry"/>
                </mxCell>
                <mxCell id="17" value="Controller" style="rounded=0;whiteSpace=wrap;html=1;" vertex="1" parent="1">
                    <mxGeometry x="510" y="366" width="90" height="30" as="geometry"/>
                </mxCell>
                <mxCell id="18" value="Interceptor" style="rounded=0;whiteSpace=wrap;html=1;" vertex="1" parent="1">
                    <mxGeometry x="510" y="450" width="90" height="30" as="geometry"/>
                </mxCell>
                <mxCell id="22" value="Type" style="rounded=0;whiteSpace=wrap;html=1;" vertex="1" parent="1">
                    <mxGeometry x="510" y="524" width="90" height="30" as="geometry"/>
                </mxCell>
                <mxCell id="23" value="Resolver" style="rounded=0;whiteSpace=wrap;html=1;" vertex="1" parent="1">
                    <mxGeometry x="510" y="484" width="90" height="30" as="geometry"/>
                </mxCell>
                <mxCell id="26" value="External API" style="rounded=0;whiteSpace=wrap;html=1;" vertex="1" parent="1">
                    <mxGeometry x="510" y="590" width="90" height="30" as="geometry"/>
                </mxCell>
                <mxCell id="31" style="edgeStyle=orthogonalEdgeStyle;html=1;entryX=0;entryY=0.5;entryDx=0;entryDy=0;" edge="1" parent="1" source="28" target="29">
                    <mxGeometry relative="1" as="geometry"/>
                </mxCell>
                <mxCell id="32" style="edgeStyle=orthogonalEdgeStyle;html=1;entryX=0;entryY=0.5;entryDx=0;entryDy=0;" edge="1" parent="1" source="28" target="30">
                    <mxGeometry relative="1" as="geometry"/>
                </mxCell>
                <mxCell id="28" value="Persistence" style="rounded=0;whiteSpace=wrap;html=1;" vertex="1" parent="1">
                    <mxGeometry x="220" y="685" width="90" height="30" as="geometry"/>
                </mxCell>
                <mxCell id="29" value="Repository" style="rounded=0;whiteSpace=wrap;html=1;" vertex="1" parent="1">
                    <mxGeometry x="390" y="655" width="90" height="30" as="geometry"/>
                </mxCell>
                <mxCell id="30" value="DB Model/Entity" style="rounded=0;whiteSpace=wrap;html=1;" vertex="1" parent="1">
                    <mxGeometry x="390" y="715" width="90" height="30" as="geometry"/>
                </mxCell>
                <mxCell id="34" value="Business Logic" style="rounded=0;whiteSpace=wrap;html=1;labelPosition=center;verticalLabelPosition=top;align=center;verticalAlign=bottom;" vertex="1" parent="1">
                    <mxGeometry x="190" y="820" width="440" height="210" as="geometry"/>
                </mxCell>
                <mxCell id="35" style="edgeStyle=orthogonalEdgeStyle;html=1;entryX=0;entryY=0.5;entryDx=0;entryDy=0;" edge="1" parent="1" source="37" target="39">
                    <mxGeometry relative="1" as="geometry"/>
                </mxCell>
                <mxCell id="36" style="edgeStyle=orthogonalEdgeStyle;html=1;entryX=0;entryY=0.5;entryDx=0;entryDy=0;" edge="1" parent="1" source="37" target="38">
                    <mxGeometry relative="1" as="geometry"/>
                </mxCell>
                <mxCell id="42" style="edgeStyle=orthogonalEdgeStyle;html=1;entryX=0;entryY=0.5;entryDx=0;entryDy=0;" edge="1" parent="1" source="37" target="40">
                    <mxGeometry relative="1" as="geometry"/>
                </mxCell>
                <mxCell id="37" value="Infra" style="rounded=0;whiteSpace=wrap;html=1;" vertex="1" parent="1">
                    <mxGeometry x="220" y="910" width="90" height="30" as="geometry"/>
                </mxCell>
                <mxCell id="38" value="Log" style="rounded=0;whiteSpace=wrap;html=1;" vertex="1" parent="1">
                    <mxGeometry x="390" y="915" width="90" height="30" as="geometry"/>
                </mxCell>
                <mxCell id="39" value="Database" style="rounded=0;whiteSpace=wrap;html=1;" vertex="1" parent="1">
                    <mxGeometry x="394" y="845" width="90" height="30" as="geometry"/>
                </mxCell>
                <mxCell id="40" value="Monitoring" style="rounded=0;whiteSpace=wrap;html=1;" vertex="1" parent="1">
                    <mxGeometry x="390" y="975" width="90" height="30" as="geometry"/>
                </mxCell>
            </root>
        </mxGraphModel>
    </diagram>
    <diagram id="9LGuZeEdnuiWk2IKhj77" name="Architect Requisitos">
        <mxGraphModel dx="913" dy="633" grid="1" gridSize="10" guides="1" tooltips="1" connect="1" arrows="1" fold="1" page="1" pageScale="1" pageWidth="827" pageHeight="1169" math="0" shadow="0">
            <root>
                <mxCell id="0"/>
                <mxCell id="1" parent="0"/>
                <mxCell id="mWzxwcct_FOMYE72QKQT-1" value="" style="ellipse;whiteSpace=wrap;html=1;aspect=fixed;fillColor=#f8cecc;strokeColor=#b85450;" vertex="1" parent="1">
                    <mxGeometry x="130" y="30" width="550" height="550" as="geometry"/>
                </mxCell>
                <mxCell id="mWzxwcct_FOMYE72QKQT-3" value="Streaming" style="ellipse;whiteSpace=wrap;html=1;aspect=fixed;fillColor=#d5e8d4;strokeColor=#82b366;fontColor=#000000;" vertex="1" parent="1">
                    <mxGeometry x="210" y="230" width="80" height="80" as="geometry"/>
                </mxCell>
                <mxCell id="mWzxwcct_FOMYE72QKQT-7" value="Segurança" style="rounded=0;whiteSpace=wrap;html=1;fillColor=#dae8fc;strokeColor=#6c8ebf;fontColor=#000000;" vertex="1" parent="1">
                    <mxGeometry x="454" y="125" width="60" height="50" as="geometry"/>
                </mxCell>
                <mxCell id="mWzxwcct_FOMYE72QKQT-8" value="Integridade" style="rounded=0;whiteSpace=wrap;html=1;fillColor=#dae8fc;strokeColor=#6c8ebf;fontColor=#000000;" vertex="1" parent="1">
                    <mxGeometry x="330" y="160" width="60" height="50" as="geometry"/>
                </mxCell>
                <mxCell id="mWzxwcct_FOMYE72QKQT-2" value="Billing" style="ellipse;whiteSpace=wrap;html=1;aspect=fixed;fillColor=#d5e8d4;strokeColor=#82b366;fontColor=#000000;" vertex="1" parent="1">
                    <mxGeometry x="374" y="110" width="80" height="80" as="geometry"/>
                </mxCell>
                <mxCell id="mWzxwcct_FOMYE72QKQT-9" value="Integridade" style="rounded=0;whiteSpace=wrap;html=1;fillColor=#dae8fc;strokeColor=#6c8ebf;fontColor=#000000;" vertex="1" parent="1">
                    <mxGeometry x="579" y="304" width="60" height="50" as="geometry"/>
                </mxCell>
                <mxCell id="mWzxwcct_FOMYE72QKQT-10" value="Integridade" style="rounded=0;whiteSpace=wrap;html=1;fillColor=#dae8fc;strokeColor=#6c8ebf;fontColor=#000000;" vertex="1" parent="1">
                    <mxGeometry x="410" y="380" width="60" height="50" as="geometry"/>
                </mxCell>
                <mxCell id="mWzxwcct_FOMYE72QKQT-5" value="Content&lt;br&gt;Management" style="ellipse;whiteSpace=wrap;html=1;aspect=fixed;fillColor=#d5e8d4;strokeColor=#82b366;fontColor=#000000;" vertex="1" parent="1">
                    <mxGeometry x="520" y="240" width="80" height="80" as="geometry"/>
                </mxCell>
                <mxCell id="mWzxwcct_FOMYE72QKQT-11" value="Escala" style="rounded=0;whiteSpace=wrap;html=1;fillColor=#dae8fc;strokeColor=#6c8ebf;fontColor=#000000;" vertex="1" parent="1">
                    <mxGeometry x="454" y="470" width="60" height="50" as="geometry"/>
                </mxCell>
                <mxCell id="mWzxwcct_FOMYE72QKQT-12" value="Baixa&lt;br&gt;latencia" style="rounded=0;whiteSpace=wrap;html=1;fillColor=#dae8fc;strokeColor=#6c8ebf;fontColor=#000000;" vertex="1" parent="1">
                    <mxGeometry x="340" y="450" width="60" height="50" as="geometry"/>
                </mxCell>
                <mxCell id="mWzxwcct_FOMYE72QKQT-4" value="Identity" style="ellipse;whiteSpace=wrap;html=1;aspect=fixed;fillColor=#d5e8d4;strokeColor=#82b366;fontColor=#000000;" vertex="1" parent="1">
                    <mxGeometry x="400" y="420" width="80" height="80" as="geometry"/>
                </mxCell>
                <mxCell id="mWzxwcct_FOMYE72QKQT-13" value="Escala" style="rounded=0;whiteSpace=wrap;html=1;fillColor=#dae8fc;strokeColor=#6c8ebf;fontColor=#000000;" vertex="1" parent="1">
                    <mxGeometry x="270" y="290" width="60" height="50" as="geometry"/>
                </mxCell>
                <mxCell id="mWzxwcct_FOMYE72QKQT-14" value="Confiabilidade" style="rounded=0;whiteSpace=wrap;html=1;fillColor=#dae8fc;strokeColor=#6c8ebf;fontColor=#000000;" vertex="1" parent="1">
                    <mxGeometry x="180" y="200" width="80" height="50" as="geometry"/>
                </mxCell>
                <mxCell id="mWzxwcct_FOMYE72QKQT-15" value="Baixa&lt;br&gt;latencia" style="rounded=0;whiteSpace=wrap;html=1;fillColor=#dae8fc;strokeColor=#6c8ebf;fontColor=#000000;" vertex="1" parent="1">
                    <mxGeometry x="160" y="280" width="60" height="50" as="geometry"/>
                </mxCell>
            </root>
        </mxGraphModel>
    </diagram>
</mxfile>